<?xml version="1.0" encoding="utf-8"?>
<!-- Generator: Adobe Illustrator 21.1.0, SVG Export Plug-In . SVG Version: 6.00 Build 0)  -->
<svg version="1.1" id="Livello_1" xmlns:sketch="http://www.bohemiancoding.com/sketch/ns"
	 xmlns="http://www.w3.org/2000/svg" xmlns:xlink="http://www.w3.org/1999/xlink" x="0px" y="0px" viewBox="0 0 32 32"
	 style="enable-background:new 0 0 32 32;" xml:space="preserve">
<style type="text/css">
	.st0{fill:#FFFFFF;stroke:#FFFFFF;stroke-width:2;stroke-miterlimit:10;}
</style>
<title></title>
<desc></desc>
<g id="Page-1">
	<g id="icon-111-search">
		<path id="search" class="st0" d="M19.4,21.4c-1.4,1-3.1,1.6-4.9,1.6C9.8,23,6,19.2,6,14.5S9.8,6,14.5,6S23,9.8,23,14.5
			c0,1.8-0.6,3.5-1.6,4.9L27,25c0.6,0.6,0.5,1.4,0,2l0,0c-0.5,0.5-1.4,0.5-2,0L19.4,21.4L19.4,21.4z M14.5,21c3.6,0,6.5-2.9,6.5-6.5
			S18.1,8,14.5,8S8,10.9,8,14.5S10.9,21,14.5,21L14.5,21z"/>
	</g>
</g>
</svg>
